<mxfile host="app.diagrams.net" modified="2023-10-23T20:38:44.404Z" agent="Mozilla/5.0 (Windows NT 10.0; Win64; x64) AppleWebKit/537.36 (KHTML, like Gecko) Chrome/118.0.0.0 Safari/537.36" etag="M-3JBzKxd6S3xLSDNkcr" version="22.0.6" type="github">
  <diagram name="Page-1" id="0783ab3e-0a74-02c8-0abd-f7b4e66b4bec">
    <mxGraphModel dx="1520" dy="1158" grid="1" gridSize="10" guides="1" tooltips="1" connect="1" arrows="1" fold="1" page="1" pageScale="1" pageWidth="850" pageHeight="1100" background="none" math="0" shadow="0">
      <root>
        <mxCell id="0" />
        <mxCell id="1" parent="0" />
        <mxCell id="8A0eGRXppmrOtd2nOJEZ-9" value="" style="edgeStyle=orthogonalEdgeStyle;rounded=0;orthogonalLoop=1;jettySize=auto;html=1;" edge="1" parent="1" source="8A0eGRXppmrOtd2nOJEZ-2" target="8A0eGRXppmrOtd2nOJEZ-8">
          <mxGeometry relative="1" as="geometry" />
        </mxCell>
        <mxCell id="8A0eGRXppmrOtd2nOJEZ-2" value="Person created" style="rounded=1;whiteSpace=wrap;html=1;" vertex="1" parent="1">
          <mxGeometry x="360" y="70" width="120" height="60" as="geometry" />
        </mxCell>
        <mxCell id="8A0eGRXppmrOtd2nOJEZ-7" value="" style="edgeStyle=orthogonalEdgeStyle;rounded=0;orthogonalLoop=1;jettySize=auto;html=1;" edge="1" parent="1" source="8A0eGRXppmrOtd2nOJEZ-5" target="8A0eGRXppmrOtd2nOJEZ-2">
          <mxGeometry relative="1" as="geometry" />
        </mxCell>
        <mxCell id="8A0eGRXppmrOtd2nOJEZ-5" value="" style="ellipse;whiteSpace=wrap;html=1;aspect=fixed;" vertex="1" parent="1">
          <mxGeometry x="400" width="40" height="40" as="geometry" />
        </mxCell>
        <mxCell id="8A0eGRXppmrOtd2nOJEZ-14" style="edgeStyle=orthogonalEdgeStyle;rounded=0;orthogonalLoop=1;jettySize=auto;html=1;entryX=0.5;entryY=0;entryDx=0;entryDy=0;" edge="1" parent="1" source="8A0eGRXppmrOtd2nOJEZ-8" target="8A0eGRXppmrOtd2nOJEZ-18">
          <mxGeometry relative="1" as="geometry">
            <mxPoint x="300" y="240" as="targetPoint" />
            <Array as="points">
              <mxPoint x="220" y="200" />
            </Array>
          </mxGeometry>
        </mxCell>
        <mxCell id="8A0eGRXppmrOtd2nOJEZ-19" value="digital inivtation delivered" style="edgeLabel;html=1;align=center;verticalAlign=middle;resizable=0;points=[];" vertex="1" connectable="0" parent="8A0eGRXppmrOtd2nOJEZ-14">
          <mxGeometry x="-0.4898" relative="1" as="geometry">
            <mxPoint x="-17" y="-10" as="offset" />
          </mxGeometry>
        </mxCell>
        <mxCell id="8A0eGRXppmrOtd2nOJEZ-22" style="edgeStyle=orthogonalEdgeStyle;rounded=0;orthogonalLoop=1;jettySize=auto;html=1;entryX=0.5;entryY=0;entryDx=0;entryDy=0;" edge="1" parent="1" source="8A0eGRXppmrOtd2nOJEZ-8" target="8A0eGRXppmrOtd2nOJEZ-36">
          <mxGeometry relative="1" as="geometry">
            <mxPoint x="600" y="290" as="targetPoint" />
            <Array as="points">
              <mxPoint x="600" y="200" />
            </Array>
          </mxGeometry>
        </mxCell>
        <mxCell id="8A0eGRXppmrOtd2nOJEZ-8" value="" style="rhombus;whiteSpace=wrap;html=1;" vertex="1" parent="1">
          <mxGeometry x="400" y="180" width="40" height="40" as="geometry" />
        </mxCell>
        <mxCell id="8A0eGRXppmrOtd2nOJEZ-10" value="&lt;span style=&quot;color: rgb(0, 0, 0); font-family: Helvetica; font-size: 12px; font-style: normal; font-variant-ligatures: normal; font-variant-caps: normal; font-weight: 400; letter-spacing: normal; orphans: 2; text-align: center; text-indent: 0px; text-transform: none; widows: 2; word-spacing: 0px; -webkit-text-stroke-width: 0px; background-color: rgb(251, 251, 251); text-decoration-thickness: initial; text-decoration-style: initial; text-decoration-color: initial; float: none; display: inline !important;&quot;&gt;choose invitation process&lt;/span&gt;" style="text;whiteSpace=wrap;html=1;" vertex="1" parent="1">
          <mxGeometry x="420" y="130" width="60" height="40" as="geometry" />
        </mxCell>
        <mxCell id="8A0eGRXppmrOtd2nOJEZ-13" value="digital process" style="swimlane;whiteSpace=wrap;html=1;" vertex="1" parent="1">
          <mxGeometry x="50" y="240" width="350" height="360" as="geometry" />
        </mxCell>
        <mxCell id="8A0eGRXppmrOtd2nOJEZ-25" value="" style="edgeStyle=orthogonalEdgeStyle;rounded=0;orthogonalLoop=1;jettySize=auto;html=1;" edge="1" parent="8A0eGRXppmrOtd2nOJEZ-13" source="8A0eGRXppmrOtd2nOJEZ-18" target="8A0eGRXppmrOtd2nOJEZ-24">
          <mxGeometry relative="1" as="geometry">
            <Array as="points">
              <mxPoint x="70" y="60" />
            </Array>
          </mxGeometry>
        </mxCell>
        <mxCell id="8A0eGRXppmrOtd2nOJEZ-28" value="" style="edgeStyle=orthogonalEdgeStyle;rounded=0;orthogonalLoop=1;jettySize=auto;html=1;entryX=0.5;entryY=0;entryDx=0;entryDy=0;" edge="1" parent="8A0eGRXppmrOtd2nOJEZ-13" source="8A0eGRXppmrOtd2nOJEZ-18" target="8A0eGRXppmrOtd2nOJEZ-27">
          <mxGeometry relative="1" as="geometry">
            <mxPoint x="270" y="70" as="targetPoint" />
            <Array as="points">
              <mxPoint x="270" y="60" />
            </Array>
          </mxGeometry>
        </mxCell>
        <mxCell id="8A0eGRXppmrOtd2nOJEZ-18" value="" style="rhombus;whiteSpace=wrap;html=1;" vertex="1" parent="8A0eGRXppmrOtd2nOJEZ-13">
          <mxGeometry x="150" y="40" width="40" height="40" as="geometry" />
        </mxCell>
        <mxCell id="8A0eGRXppmrOtd2nOJEZ-32" value="" style="edgeStyle=orthogonalEdgeStyle;rounded=0;orthogonalLoop=1;jettySize=auto;html=1;" edge="1" parent="8A0eGRXppmrOtd2nOJEZ-13" source="8A0eGRXppmrOtd2nOJEZ-24" target="8A0eGRXppmrOtd2nOJEZ-31">
          <mxGeometry relative="1" as="geometry" />
        </mxCell>
        <mxCell id="8A0eGRXppmrOtd2nOJEZ-24" value="digital invitation delivered" style="rounded=1;whiteSpace=wrap;html=1;" vertex="1" parent="8A0eGRXppmrOtd2nOJEZ-13">
          <mxGeometry x="30" y="80" width="80" height="40" as="geometry" />
        </mxCell>
        <mxCell id="8A0eGRXppmrOtd2nOJEZ-27" value="digital invitation failed" style="rounded=1;whiteSpace=wrap;html=1;" vertex="1" parent="8A0eGRXppmrOtd2nOJEZ-13">
          <mxGeometry x="230" y="80" width="80" height="40" as="geometry" />
        </mxCell>
        <mxCell id="8A0eGRXppmrOtd2nOJEZ-42" style="edgeStyle=orthogonalEdgeStyle;rounded=0;orthogonalLoop=1;jettySize=auto;html=1;entryX=0.5;entryY=0;entryDx=0;entryDy=0;" edge="1" parent="8A0eGRXppmrOtd2nOJEZ-13" source="8A0eGRXppmrOtd2nOJEZ-31" target="8A0eGRXppmrOtd2nOJEZ-41">
          <mxGeometry relative="1" as="geometry" />
        </mxCell>
        <mxCell id="8A0eGRXppmrOtd2nOJEZ-43" value="response in time" style="edgeLabel;html=1;align=center;verticalAlign=middle;resizable=0;points=[];" vertex="1" connectable="0" parent="8A0eGRXppmrOtd2nOJEZ-42">
          <mxGeometry x="-0.225" relative="1" as="geometry">
            <mxPoint as="offset" />
          </mxGeometry>
        </mxCell>
        <mxCell id="8A0eGRXppmrOtd2nOJEZ-45" style="edgeStyle=orthogonalEdgeStyle;rounded=0;orthogonalLoop=1;jettySize=auto;html=1;entryX=0.5;entryY=0;entryDx=0;entryDy=0;" edge="1" parent="8A0eGRXppmrOtd2nOJEZ-13" source="8A0eGRXppmrOtd2nOJEZ-31" target="8A0eGRXppmrOtd2nOJEZ-44">
          <mxGeometry relative="1" as="geometry" />
        </mxCell>
        <mxCell id="8A0eGRXppmrOtd2nOJEZ-47" value="no response/ response not in time" style="edgeLabel;html=1;align=center;verticalAlign=middle;resizable=0;points=[];" vertex="1" connectable="0" parent="8A0eGRXppmrOtd2nOJEZ-45">
          <mxGeometry x="0.7" y="-1" relative="1" as="geometry">
            <mxPoint as="offset" />
          </mxGeometry>
        </mxCell>
        <mxCell id="8A0eGRXppmrOtd2nOJEZ-31" value="" style="rhombus;whiteSpace=wrap;html=1;" vertex="1" parent="8A0eGRXppmrOtd2nOJEZ-13">
          <mxGeometry x="50" y="150" width="40" height="40" as="geometry" />
        </mxCell>
        <mxCell id="8A0eGRXppmrOtd2nOJEZ-41" value="appointment scheduled by person" style="rounded=1;whiteSpace=wrap;html=1;" vertex="1" parent="8A0eGRXppmrOtd2nOJEZ-13">
          <mxGeometry x="30" y="230" width="80" height="40" as="geometry" />
        </mxCell>
        <mxCell id="8A0eGRXppmrOtd2nOJEZ-44" value="invitation overdue" style="rounded=1;whiteSpace=wrap;html=1;" vertex="1" parent="8A0eGRXppmrOtd2nOJEZ-13">
          <mxGeometry x="220" y="230" width="80" height="40" as="geometry" />
        </mxCell>
        <mxCell id="8A0eGRXppmrOtd2nOJEZ-20" value="postal process" style="swimlane;whiteSpace=wrap;html=1;" vertex="1" parent="1">
          <mxGeometry x="440" y="240" width="340" height="360" as="geometry" />
        </mxCell>
        <mxCell id="8A0eGRXppmrOtd2nOJEZ-36" value="appointment delivered by staff" style="rounded=1;whiteSpace=wrap;html=1;" vertex="1" parent="8A0eGRXppmrOtd2nOJEZ-20">
          <mxGeometry x="120" y="150" width="80" height="40" as="geometry" />
        </mxCell>
        <mxCell id="8A0eGRXppmrOtd2nOJEZ-33" value="postal inivtation delivered" style="edgeLabel;html=1;align=center;verticalAlign=middle;resizable=0;points=[];" vertex="1" connectable="0" parent="1">
          <mxGeometry x="530.0033333333334" y="190.00000000000023" as="geometry" />
        </mxCell>
        <mxCell id="8A0eGRXppmrOtd2nOJEZ-37" style="edgeStyle=orthogonalEdgeStyle;rounded=0;orthogonalLoop=1;jettySize=auto;html=1;entryX=0;entryY=0.5;entryDx=0;entryDy=0;" edge="1" parent="1" source="8A0eGRXppmrOtd2nOJEZ-27" target="8A0eGRXppmrOtd2nOJEZ-36">
          <mxGeometry relative="1" as="geometry" />
        </mxCell>
        <mxCell id="8A0eGRXppmrOtd2nOJEZ-48" style="edgeStyle=orthogonalEdgeStyle;rounded=0;orthogonalLoop=1;jettySize=auto;html=1;entryX=0;entryY=0.75;entryDx=0;entryDy=0;" edge="1" parent="1" source="8A0eGRXppmrOtd2nOJEZ-44" target="8A0eGRXppmrOtd2nOJEZ-36">
          <mxGeometry relative="1" as="geometry">
            <Array as="points">
              <mxPoint x="460" y="490" />
              <mxPoint x="460" y="420" />
            </Array>
          </mxGeometry>
        </mxCell>
        <mxCell id="8A0eGRXppmrOtd2nOJEZ-55" value="" style="edgeStyle=orthogonalEdgeStyle;rounded=0;orthogonalLoop=1;jettySize=auto;html=1;" edge="1" parent="1" source="8A0eGRXppmrOtd2nOJEZ-50">
          <mxGeometry relative="1" as="geometry">
            <mxPoint x="410" y="1360" as="targetPoint" />
          </mxGeometry>
        </mxCell>
        <mxCell id="8A0eGRXppmrOtd2nOJEZ-50" value="Investigation completed, (&quot;triple sheet&quot; filled out.)" style="rounded=1;whiteSpace=wrap;html=1;" vertex="1" parent="1">
          <mxGeometry x="350" y="1200" width="120" height="60" as="geometry" />
        </mxCell>
        <mxCell id="8A0eGRXppmrOtd2nOJEZ-53" value="" style="edgeStyle=orthogonalEdgeStyle;rounded=0;orthogonalLoop=1;jettySize=auto;html=1;" edge="1" parent="1" source="8A0eGRXppmrOtd2nOJEZ-52" target="8A0eGRXppmrOtd2nOJEZ-50">
          <mxGeometry relative="1" as="geometry" />
        </mxCell>
        <mxCell id="8A0eGRXppmrOtd2nOJEZ-52" value="" style="ellipse;whiteSpace=wrap;html=1;aspect=fixed;" vertex="1" parent="1">
          <mxGeometry x="385" y="1120" width="50" height="50" as="geometry" />
        </mxCell>
        <mxCell id="8A0eGRXppmrOtd2nOJEZ-79" style="edgeStyle=orthogonalEdgeStyle;rounded=0;orthogonalLoop=1;jettySize=auto;html=1;entryX=0.5;entryY=0;entryDx=0;entryDy=0;" edge="1" parent="1" target="8A0eGRXppmrOtd2nOJEZ-67">
          <mxGeometry relative="1" as="geometry">
            <mxPoint x="440" y="1390" as="sourcePoint" />
          </mxGeometry>
        </mxCell>
        <mxCell id="8A0eGRXppmrOtd2nOJEZ-110" style="edgeStyle=orthogonalEdgeStyle;rounded=0;orthogonalLoop=1;jettySize=auto;html=1;entryX=0;entryY=0.5;entryDx=0;entryDy=0;" edge="1" parent="1" source="8A0eGRXppmrOtd2nOJEZ-61" target="8A0eGRXppmrOtd2nOJEZ-96">
          <mxGeometry relative="1" as="geometry">
            <Array as="points">
              <mxPoint x="290" y="1670" />
            </Array>
          </mxGeometry>
        </mxCell>
        <mxCell id="8A0eGRXppmrOtd2nOJEZ-61" value="No anomalies found&amp;nbsp;" style="rounded=1;whiteSpace=wrap;html=1;" vertex="1" parent="1">
          <mxGeometry x="230" y="1420" width="120" height="60" as="geometry" />
        </mxCell>
        <mxCell id="8A0eGRXppmrOtd2nOJEZ-62" value="&lt;span style=&quot;color: rgb(0, 0, 0); font-family: Helvetica; font-size: 12px; font-style: normal; font-variant-ligatures: normal; font-variant-caps: normal; font-weight: 400; letter-spacing: normal; orphans: 2; text-align: center; text-indent: 0px; text-transform: none; widows: 2; word-spacing: 0px; -webkit-text-stroke-width: 0px; background-color: rgb(251, 251, 251); text-decoration-thickness: initial; text-decoration-style: initial; text-decoration-color: initial; float: none; display: inline !important;&quot;&gt;Check for anomalies&lt;/span&gt;" style="text;whiteSpace=wrap;html=1;" vertex="1" parent="1">
          <mxGeometry x="350" y="1290" width="160" height="40" as="geometry" />
        </mxCell>
        <mxCell id="8A0eGRXppmrOtd2nOJEZ-65" style="edgeStyle=orthogonalEdgeStyle;rounded=0;orthogonalLoop=1;jettySize=auto;html=1;entryX=0.45;entryY=0.016;entryDx=0;entryDy=0;entryPerimeter=0;" edge="1" parent="1" target="8A0eGRXppmrOtd2nOJEZ-61">
          <mxGeometry relative="1" as="geometry">
            <mxPoint x="380" y="1390" as="sourcePoint" />
          </mxGeometry>
        </mxCell>
        <mxCell id="8A0eGRXppmrOtd2nOJEZ-66" style="edgeStyle=orthogonalEdgeStyle;rounded=0;orthogonalLoop=1;jettySize=auto;html=1;entryX=0.573;entryY=0.016;entryDx=0;entryDy=0;entryPerimeter=0;" edge="1" parent="1">
          <mxGeometry relative="1" as="geometry">
            <mxPoint x="440" y="1390" as="sourcePoint" />
            <mxPoint x="538.7599999999998" y="1420.96" as="targetPoint" />
          </mxGeometry>
        </mxCell>
        <mxCell id="8A0eGRXppmrOtd2nOJEZ-83" value="" style="edgeStyle=orthogonalEdgeStyle;rounded=0;orthogonalLoop=1;jettySize=auto;html=1;" edge="1" parent="1" source="8A0eGRXppmrOtd2nOJEZ-67" target="8A0eGRXppmrOtd2nOJEZ-82">
          <mxGeometry relative="1" as="geometry" />
        </mxCell>
        <mxCell id="8A0eGRXppmrOtd2nOJEZ-67" value="Measles anomaly found" style="rounded=1;whiteSpace=wrap;html=1;" vertex="1" parent="1">
          <mxGeometry x="630" y="1420" width="120" height="60" as="geometry" />
        </mxCell>
        <mxCell id="8A0eGRXppmrOtd2nOJEZ-81" value="" style="edgeStyle=orthogonalEdgeStyle;rounded=0;orthogonalLoop=1;jettySize=auto;html=1;" edge="1" parent="1" source="8A0eGRXppmrOtd2nOJEZ-68" target="8A0eGRXppmrOtd2nOJEZ-80">
          <mxGeometry relative="1" as="geometry" />
        </mxCell>
        <mxCell id="8A0eGRXppmrOtd2nOJEZ-68" value="hearing/ vision anomaly found" style="rounded=1;whiteSpace=wrap;html=1;" vertex="1" parent="1">
          <mxGeometry x="480" y="1420" width="120" height="60" as="geometry" />
        </mxCell>
        <mxCell id="8A0eGRXppmrOtd2nOJEZ-77" value="&lt;div style=&quot;text-align: center;&quot;&gt;&lt;br&gt;&lt;/div&gt;" style="text;whiteSpace=wrap;html=1;" vertex="1" parent="1">
          <mxGeometry x="755" y="1540" width="50" height="20" as="geometry" />
        </mxCell>
        <mxCell id="8A0eGRXppmrOtd2nOJEZ-97" style="edgeStyle=orthogonalEdgeStyle;rounded=0;orthogonalLoop=1;jettySize=auto;html=1;" edge="1" parent="1" target="8A0eGRXppmrOtd2nOJEZ-96">
          <mxGeometry relative="1" as="geometry">
            <mxPoint x="540" y="1520" as="sourcePoint" />
          </mxGeometry>
        </mxCell>
        <mxCell id="8A0eGRXppmrOtd2nOJEZ-80" value="Recommendation letter &quot;doctor&quot; handed out" style="whiteSpace=wrap;html=1;rounded=1;" vertex="1" parent="1">
          <mxGeometry x="480" y="1520" width="120" height="60" as="geometry" />
        </mxCell>
        <mxCell id="8A0eGRXppmrOtd2nOJEZ-100" style="edgeStyle=orthogonalEdgeStyle;rounded=0;orthogonalLoop=1;jettySize=auto;html=1;entryX=1;entryY=0.5;entryDx=0;entryDy=0;" edge="1" parent="1" target="8A0eGRXppmrOtd2nOJEZ-96">
          <mxGeometry relative="1" as="geometry">
            <mxPoint x="690.0526315789475" y="1520" as="sourcePoint" />
            <Array as="points">
              <mxPoint x="690" y="1670" />
            </Array>
          </mxGeometry>
        </mxCell>
        <mxCell id="8A0eGRXppmrOtd2nOJEZ-82" value="Forwarded to questionnaire or created document Forwarded to 5.3" style="whiteSpace=wrap;html=1;rounded=1;" vertex="1" parent="1">
          <mxGeometry x="630" y="1520" width="120" height="60" as="geometry" />
        </mxCell>
        <mxCell id="8A0eGRXppmrOtd2nOJEZ-105" value="" style="edgeStyle=orthogonalEdgeStyle;rounded=0;orthogonalLoop=1;jettySize=auto;html=1;" edge="1" parent="1" source="8A0eGRXppmrOtd2nOJEZ-96" target="8A0eGRXppmrOtd2nOJEZ-103">
          <mxGeometry relative="1" as="geometry">
            <Array as="points">
              <mxPoint x="530" y="1760" />
              <mxPoint x="445" y="1760" />
            </Array>
          </mxGeometry>
        </mxCell>
        <mxCell id="8A0eGRXppmrOtd2nOJEZ-108" style="edgeStyle=orthogonalEdgeStyle;rounded=0;orthogonalLoop=1;jettySize=auto;html=1;entryX=0.5;entryY=0;entryDx=0;entryDy=0;" edge="1" parent="1" source="8A0eGRXppmrOtd2nOJEZ-96" target="8A0eGRXppmrOtd2nOJEZ-107">
          <mxGeometry relative="1" as="geometry">
            <Array as="points">
              <mxPoint x="550" y="1760" />
              <mxPoint x="640" y="1760" />
            </Array>
          </mxGeometry>
        </mxCell>
        <mxCell id="8A0eGRXppmrOtd2nOJEZ-111" value="Check necessity medical examination" style="edgeLabel;html=1;align=center;verticalAlign=middle;resizable=0;points=[];" vertex="1" connectable="0" parent="8A0eGRXppmrOtd2nOJEZ-108">
          <mxGeometry x="-0.7639" y="2" relative="1" as="geometry">
            <mxPoint x="-12" y="9" as="offset" />
          </mxGeometry>
        </mxCell>
        <mxCell id="8A0eGRXppmrOtd2nOJEZ-96" value="" style="rhombus;whiteSpace=wrap;html=1;" vertex="1" parent="1">
          <mxGeometry x="510" y="1640" width="60" height="60" as="geometry" />
        </mxCell>
        <mxCell id="8A0eGRXppmrOtd2nOJEZ-113" value="" style="edgeStyle=orthogonalEdgeStyle;rounded=0;orthogonalLoop=1;jettySize=auto;html=1;" edge="1" parent="1" source="8A0eGRXppmrOtd2nOJEZ-103" target="8A0eGRXppmrOtd2nOJEZ-112">
          <mxGeometry relative="1" as="geometry" />
        </mxCell>
        <mxCell id="8A0eGRXppmrOtd2nOJEZ-103" value="child seen by doctor" style="rounded=1;whiteSpace=wrap;html=1;" vertex="1" parent="1">
          <mxGeometry x="385" y="1780" width="120" height="60" as="geometry" />
        </mxCell>
        <mxCell id="8A0eGRXppmrOtd2nOJEZ-115" value="" style="edgeStyle=orthogonalEdgeStyle;rounded=0;orthogonalLoop=1;jettySize=auto;html=1;" edge="1" parent="1" source="8A0eGRXppmrOtd2nOJEZ-107" target="8A0eGRXppmrOtd2nOJEZ-114">
          <mxGeometry relative="1" as="geometry" />
        </mxCell>
        <mxCell id="8A0eGRXppmrOtd2nOJEZ-107" value="child not seen by doctor" style="rounded=1;whiteSpace=wrap;html=1;" vertex="1" parent="1">
          <mxGeometry x="580" y="1780" width="120" height="60" as="geometry" />
        </mxCell>
        <mxCell id="8A0eGRXppmrOtd2nOJEZ-126" style="edgeStyle=orthogonalEdgeStyle;rounded=0;orthogonalLoop=1;jettySize=auto;html=1;" edge="1" parent="1" source="8A0eGRXppmrOtd2nOJEZ-112" target="8A0eGRXppmrOtd2nOJEZ-123">
          <mxGeometry relative="1" as="geometry" />
        </mxCell>
        <mxCell id="8A0eGRXppmrOtd2nOJEZ-112" value="examination documented and signed by doctor" style="whiteSpace=wrap;html=1;rounded=1;" vertex="1" parent="1">
          <mxGeometry x="385" y="1880" width="120" height="60" as="geometry" />
        </mxCell>
        <mxCell id="8A0eGRXppmrOtd2nOJEZ-127" style="edgeStyle=orthogonalEdgeStyle;rounded=0;orthogonalLoop=1;jettySize=auto;html=1;entryX=0.5;entryY=0;entryDx=0;entryDy=0;" edge="1" parent="1" source="8A0eGRXppmrOtd2nOJEZ-114" target="8A0eGRXppmrOtd2nOJEZ-123">
          <mxGeometry relative="1" as="geometry" />
        </mxCell>
        <mxCell id="8A0eGRXppmrOtd2nOJEZ-114" value="documented and signed by&amp;nbsp;medical assistant (Eva)" style="whiteSpace=wrap;html=1;rounded=1;" vertex="1" parent="1">
          <mxGeometry x="580" y="1880" width="120" height="60" as="geometry" />
        </mxCell>
        <mxCell id="8A0eGRXppmrOtd2nOJEZ-121" value="Parents" style="swimlane;whiteSpace=wrap;html=1;startSize=23;" vertex="1" parent="1">
          <mxGeometry x="140" y="2080" width="200" height="200" as="geometry" />
        </mxCell>
        <mxCell id="8A0eGRXppmrOtd2nOJEZ-133" value="Triple sheet sent via Mail" style="rounded=1;whiteSpace=wrap;html=1;" vertex="1" parent="8A0eGRXppmrOtd2nOJEZ-121">
          <mxGeometry x="10" y="50" width="90" height="50" as="geometry" />
        </mxCell>
        <mxCell id="8A0eGRXppmrOtd2nOJEZ-138" value="Triple sheet printed out" style="rounded=1;whiteSpace=wrap;html=1;" vertex="1" parent="8A0eGRXppmrOtd2nOJEZ-121">
          <mxGeometry x="105" y="50" width="90" height="50" as="geometry" />
        </mxCell>
        <mxCell id="8A0eGRXppmrOtd2nOJEZ-128" style="edgeStyle=orthogonalEdgeStyle;rounded=0;orthogonalLoop=1;jettySize=auto;html=1;entryX=0.5;entryY=0;entryDx=0;entryDy=0;" edge="1" parent="1" source="8A0eGRXppmrOtd2nOJEZ-123" target="8A0eGRXppmrOtd2nOJEZ-133">
          <mxGeometry relative="1" as="geometry">
            <mxPoint x="240" y="2130" as="targetPoint" />
          </mxGeometry>
        </mxCell>
        <mxCell id="8A0eGRXppmrOtd2nOJEZ-135" value="digital transfer accepted" style="edgeLabel;html=1;align=center;verticalAlign=middle;resizable=0;points=[];" vertex="1" connectable="0" parent="8A0eGRXppmrOtd2nOJEZ-128">
          <mxGeometry x="-0.2187" y="1" relative="1" as="geometry">
            <mxPoint x="-176" y="29" as="offset" />
          </mxGeometry>
        </mxCell>
        <mxCell id="8A0eGRXppmrOtd2nOJEZ-132" style="edgeStyle=orthogonalEdgeStyle;rounded=0;orthogonalLoop=1;jettySize=auto;html=1;entryX=0.5;entryY=0;entryDx=0;entryDy=0;" edge="1" parent="1" source="8A0eGRXppmrOtd2nOJEZ-123" target="8A0eGRXppmrOtd2nOJEZ-142">
          <mxGeometry relative="1" as="geometry">
            <mxPoint x="720" y="2120" as="targetPoint" />
          </mxGeometry>
        </mxCell>
        <mxCell id="8A0eGRXppmrOtd2nOJEZ-136" style="edgeStyle=orthogonalEdgeStyle;rounded=0;orthogonalLoop=1;jettySize=auto;html=1;entryX=0.5;entryY=0;entryDx=0;entryDy=0;" edge="1" parent="1" source="8A0eGRXppmrOtd2nOJEZ-123" target="8A0eGRXppmrOtd2nOJEZ-138">
          <mxGeometry relative="1" as="geometry">
            <mxPoint x="289.9473684210527" y="2100" as="targetPoint" />
          </mxGeometry>
        </mxCell>
        <mxCell id="8A0eGRXppmrOtd2nOJEZ-139" value="digital transmission rejected" style="edgeLabel;html=1;align=center;verticalAlign=middle;resizable=0;points=[];" vertex="1" connectable="0" parent="8A0eGRXppmrOtd2nOJEZ-136">
          <mxGeometry x="0.5694" y="1" relative="1" as="geometry">
            <mxPoint x="29" y="-15" as="offset" />
          </mxGeometry>
        </mxCell>
        <mxCell id="8A0eGRXppmrOtd2nOJEZ-123" value="" style="ellipse;whiteSpace=wrap;html=1;aspect=fixed;" vertex="1" parent="1">
          <mxGeometry x="520" y="1990" width="40" height="40" as="geometry" />
        </mxCell>
        <mxCell id="8A0eGRXppmrOtd2nOJEZ-129" value="School" style="swimlane;whiteSpace=wrap;html=1;startSize=23;" vertex="1" parent="1">
          <mxGeometry x="380" y="2080" width="200" height="200" as="geometry" />
        </mxCell>
        <mxCell id="8A0eGRXppmrOtd2nOJEZ-141" value="Triple sheet provided for download" style="rounded=1;whiteSpace=wrap;html=1;" vertex="1" parent="8A0eGRXppmrOtd2nOJEZ-129">
          <mxGeometry x="60" y="50" width="90" height="50" as="geometry" />
        </mxCell>
        <mxCell id="8A0eGRXppmrOtd2nOJEZ-130" value="Archiving&amp;nbsp;" style="swimlane;whiteSpace=wrap;html=1;startSize=23;fontStyle=0" vertex="1" parent="1">
          <mxGeometry x="620" y="2080" width="200" height="200" as="geometry" />
        </mxCell>
        <mxCell id="8A0eGRXppmrOtd2nOJEZ-142" value="File saved" style="rounded=1;whiteSpace=wrap;html=1;" vertex="1" parent="8A0eGRXppmrOtd2nOJEZ-130">
          <mxGeometry x="55" y="50" width="90" height="50" as="geometry" />
        </mxCell>
        <mxCell id="8A0eGRXppmrOtd2nOJEZ-131" style="edgeStyle=orthogonalEdgeStyle;rounded=0;orthogonalLoop=1;jettySize=auto;html=1;" edge="1" parent="1" source="8A0eGRXppmrOtd2nOJEZ-123" target="8A0eGRXppmrOtd2nOJEZ-141">
          <mxGeometry relative="1" as="geometry">
            <Array as="points">
              <mxPoint x="540" y="2050" />
              <mxPoint x="485" y="2050" />
            </Array>
          </mxGeometry>
        </mxCell>
        <mxCell id="8A0eGRXppmrOtd2nOJEZ-144" value="" style="ellipse;whiteSpace=wrap;html=1;aspect=fixed;fillColor=#000000;" vertex="1" parent="1">
          <mxGeometry x="465" y="2400" width="40" height="40" as="geometry" />
        </mxCell>
        <mxCell id="8A0eGRXppmrOtd2nOJEZ-145" style="edgeStyle=orthogonalEdgeStyle;rounded=0;orthogonalLoop=1;jettySize=auto;html=1;" edge="1" parent="1" source="8A0eGRXppmrOtd2nOJEZ-142" target="8A0eGRXppmrOtd2nOJEZ-144">
          <mxGeometry relative="1" as="geometry">
            <Array as="points">
              <mxPoint x="720" y="2420" />
            </Array>
          </mxGeometry>
        </mxCell>
        <mxCell id="8A0eGRXppmrOtd2nOJEZ-146" style="edgeStyle=orthogonalEdgeStyle;rounded=0;orthogonalLoop=1;jettySize=auto;html=1;" edge="1" parent="1" source="8A0eGRXppmrOtd2nOJEZ-141" target="8A0eGRXppmrOtd2nOJEZ-144">
          <mxGeometry relative="1" as="geometry" />
        </mxCell>
        <mxCell id="8A0eGRXppmrOtd2nOJEZ-147" style="edgeStyle=orthogonalEdgeStyle;rounded=0;orthogonalLoop=1;jettySize=auto;html=1;entryX=0;entryY=0.5;entryDx=0;entryDy=0;" edge="1" parent="1" source="8A0eGRXppmrOtd2nOJEZ-138" target="8A0eGRXppmrOtd2nOJEZ-144">
          <mxGeometry relative="1" as="geometry">
            <Array as="points">
              <mxPoint x="290" y="2420" />
            </Array>
          </mxGeometry>
        </mxCell>
        <mxCell id="8A0eGRXppmrOtd2nOJEZ-148" style="edgeStyle=orthogonalEdgeStyle;rounded=0;orthogonalLoop=1;jettySize=auto;html=1;entryX=0;entryY=0.5;entryDx=0;entryDy=0;" edge="1" parent="1" source="8A0eGRXppmrOtd2nOJEZ-133" target="8A0eGRXppmrOtd2nOJEZ-144">
          <mxGeometry relative="1" as="geometry">
            <Array as="points">
              <mxPoint x="195" y="2420" />
            </Array>
          </mxGeometry>
        </mxCell>
        <mxCell id="8A0eGRXppmrOtd2nOJEZ-149" value="anomalies checked" style="rounded=1;whiteSpace=wrap;html=1;" vertex="1" parent="1">
          <mxGeometry x="350" y="1350" width="120" height="60" as="geometry" />
        </mxCell>
      </root>
    </mxGraphModel>
  </diagram>
</mxfile>
